<svg width="153" height="9" viewBox="0 0 153 9" fill="none" xmlns="http://www.w3.org/2000/svg">
<path d="M0.957 0.245H1.859V8H0.957V0.245ZM7.08245 8.088C6.34912 8.088 5.71112 7.93033 5.16845 7.615C4.62579 7.29233 4.20779 6.834 3.91445 6.24C3.62845 5.63867 3.48545 4.931 3.48545 4.117C3.48545 3.303 3.62845 2.599 3.91445 2.005C4.20779 1.411 4.62579 0.956333 5.16845 0.641C5.71112 0.318333 6.34912 0.156999 7.08245 0.156999C7.61779 0.156999 8.10912 0.241333 8.55645 0.409999C9.00379 0.571333 9.39245 0.813333 9.72245 1.136L9.38145 1.829C9.00745 1.51367 8.64079 1.28633 8.28145 1.147C7.92212 1.00767 7.52612 0.938 7.09345 0.938C6.24279 0.938 5.58279 1.21667 5.11345 1.774C4.65145 2.324 4.42045 3.105 4.42045 4.117C4.42045 5.13633 4.65145 5.92467 5.11345 6.482C5.58279 7.032 6.24279 7.307 7.09345 7.307C7.52612 7.307 7.92212 7.23733 8.28145 7.098C8.64079 6.95867 9.00745 6.73133 9.38145 6.416L9.72245 7.109C9.39245 7.43167 9.00379 7.67733 8.55645 7.846C8.10912 8.00733 7.61779 8.088 7.08245 8.088ZM13.7767 0.245H14.8327L14.6127 3.292H14.0187L13.7767 0.245ZM15.9767 0.245H17.0327L16.8127 3.292H16.2187L15.9767 0.245ZM24.7866 8H23.7966L22.4766 5.514C22.3153 5.21333 22.1246 5.008 21.9046 4.898C21.6919 4.78067 21.3986 4.722 21.0246 4.722H19.5726V8H18.6816V0.245H21.8716C22.7149 0.245 23.3566 0.432 23.7966 0.806C24.2439 1.18 24.4676 1.73 24.4676 2.456C24.4676 3.05733 24.2953 3.545 23.9506 3.919C23.6133 4.28567 23.1293 4.51667 22.4986 4.612C22.6966 4.67067 22.8689 4.76967 23.0156 4.909C23.1696 5.04833 23.3089 5.23533 23.4336 5.47L24.7866 8ZM21.7946 3.974C22.3959 3.974 22.8433 3.84933 23.1366 3.6C23.4373 3.35067 23.5876 2.973 23.5876 2.467C23.5876 1.96833 23.4409 1.598 23.1476 1.356C22.8543 1.114 22.4033 0.993 21.7946 0.993H19.5726V3.974H21.7946ZM26.2226 0.245H31.1286V0.993H27.1136V3.688H30.9086V4.436H27.1136V7.252H31.1286V8H26.2226V0.245ZM32.625 0.245H35.694C36.508 0.245 37.1386 0.443 37.586 0.839C38.0406 1.235 38.268 1.796 38.268 2.522C38.268 3.248 38.0406 3.81267 37.586 4.216C37.1313 4.61933 36.5006 4.821 35.694 4.821H33.527V8H32.625V0.245ZM35.606 4.073C36.7866 4.073 37.377 3.556 37.377 2.522C37.377 1.50267 36.7866 0.993 35.606 0.993H33.527V4.073H35.606ZM43.9587 6.009H39.9107L39.0527 8H38.1287L41.5387 0.245H42.3197L45.7297 8H44.8167L43.9587 6.009ZM43.6397 5.261L41.9347 1.29L40.2297 5.261H43.6397ZM46.8799 0.245H47.7819V8H46.8799V0.245ZM55.7993 8H54.8093L53.4893 5.514C53.328 5.21333 53.1373 5.008 52.9173 4.898C52.7046 4.78067 52.4113 4.722 52.0373 4.722H50.5853V8H49.6943V0.245H52.8843C53.7276 0.245 54.3693 0.432 54.8093 0.806C55.2566 1.18 55.4803 1.73 55.4803 2.456C55.4803 3.05733 55.308 3.545 54.9633 3.919C54.626 4.28567 54.142 4.51667 53.5113 4.612C53.7093 4.67067 53.8816 4.76967 54.0283 4.909C54.1823 5.04833 54.3216 5.23533 54.4463 5.47L55.7993 8ZM52.8073 3.974C53.4086 3.974 53.856 3.84933 54.1493 3.6C54.45 3.35067 54.6003 2.973 54.6003 2.467C54.6003 1.96833 54.4536 1.598 54.1603 1.356C53.867 1.114 53.416 0.993 52.8073 0.993H50.5853V3.974H52.8073ZM60.0713 0.245H62.6783C63.9176 0.245 64.8746 0.582333 65.5493 1.257C66.2313 1.92433 66.5723 2.87767 66.5723 4.117C66.5723 5.35633 66.2313 6.31333 65.5493 6.988C64.8746 7.66267 63.9176 8 62.6783 8H60.0713V0.245ZM62.6233 7.23C64.6326 7.23 65.6373 6.19233 65.6373 4.117C65.6373 2.049 64.6326 1.015 62.6233 1.015H60.9733V7.23H62.6233ZM68.2031 0.245H73.1091V0.993H69.0941V3.688H72.8891V4.436H69.0941V7.252H73.1091V8H68.2031V0.245ZM76.962 8.088C75.752 8.088 74.784 7.76167 74.058 7.109L74.41 6.416C74.7913 6.73867 75.18 6.96967 75.576 7.109C75.9793 7.24833 76.445 7.318 76.973 7.318C77.5963 7.318 78.0767 7.197 78.414 6.955C78.7513 6.713 78.92 6.372 78.92 5.932C78.92 5.67533 78.8393 5.46633 78.678 5.305C78.5167 5.14367 78.304 5.01533 78.04 4.92C77.776 4.82467 77.4203 4.72567 76.973 4.623C76.3717 4.48367 75.8767 4.337 75.488 4.183C75.1067 4.029 74.795 3.809 74.553 3.523C74.3183 3.237 74.201 2.863 74.201 2.401C74.201 1.961 74.3147 1.57233 74.542 1.235C74.7767 0.890333 75.1067 0.626333 75.532 0.443C75.9647 0.252333 76.4633 0.156999 77.028 0.156999C77.5633 0.156999 78.062 0.241333 78.524 0.409999C78.9933 0.578666 79.3893 0.820666 79.712 1.136L79.371 1.829C79.0043 1.51367 78.6303 1.28633 78.249 1.147C77.875 1.00033 77.468 0.927 77.028 0.927C76.4267 0.927 75.9537 1.05533 75.609 1.312C75.2717 1.56133 75.103 1.91333 75.103 2.368C75.103 2.75667 75.2533 3.05 75.554 3.248C75.8547 3.446 76.3093 3.61467 76.918 3.754C77.5853 3.91533 78.1097 4.06567 78.491 4.205C78.8723 4.337 79.1877 4.53867 79.437 4.81C79.6937 5.08133 79.822 5.44433 79.822 5.899C79.822 6.339 79.7047 6.724 79.47 7.054C79.2427 7.384 78.9127 7.64067 78.48 7.824C78.0473 8 77.5413 8.088 76.962 8.088ZM81.2871 0.245H82.1891V8H81.2871V0.245ZM90.2395 3.963V7.549C89.9315 7.71033 89.5282 7.84233 89.0295 7.945C88.5382 8.04033 88.0395 8.088 87.5335 8.088C86.7635 8.088 86.0999 7.93033 85.5425 7.615C84.9852 7.29967 84.5562 6.845 84.2555 6.251C83.9622 5.657 83.8155 4.94567 83.8155 4.117C83.8155 3.29567 83.9622 2.588 84.2555 1.994C84.5489 1.4 84.9705 0.945333 85.5205 0.63C86.0705 0.314666 86.7195 0.156999 87.4675 0.156999C88.0102 0.156999 88.5089 0.241333 88.9635 0.409999C89.4182 0.571333 89.8069 0.813333 90.1295 1.136L89.7885 1.829C89.4145 1.50633 89.0442 1.27533 88.6775 1.136C88.3182 0.996667 87.9149 0.927 87.4675 0.927C86.5949 0.927 85.9239 1.202 85.4545 1.752C84.9852 2.302 84.7505 3.09033 84.7505 4.117C84.7505 5.16567 84.9889 5.965 85.4655 6.515C85.9422 7.05767 86.6389 7.329 87.5555 7.329C88.2229 7.329 88.8425 7.23 89.4145 7.032V4.667H87.4895V3.963H90.2395ZM98.2765 0.245V8H97.5835L92.9085 1.763V8H92.0615V0.245H92.7545L97.4295 6.482V0.245H98.2765ZM103.029 0.245H106.098C106.912 0.245 107.543 0.443 107.99 0.839C108.445 1.235 108.672 1.796 108.672 2.522C108.672 3.248 108.445 3.81267 107.99 4.216C107.536 4.61933 106.905 4.821 106.098 4.821H103.931V8H103.029V0.245ZM106.01 4.073C107.191 4.073 107.781 3.556 107.781 2.522C107.781 1.50267 107.191 0.993 106.01 0.993H103.931V4.073H106.01ZM116.224 8H115.234L113.914 5.514C113.753 5.21333 113.562 5.008 113.342 4.898C113.129 4.78067 112.836 4.722 112.462 4.722H111.01V8H110.119V0.245H113.309C114.152 0.245 114.794 0.432 115.234 0.806C115.681 1.18 115.905 1.73 115.905 2.456C115.905 3.05733 115.733 3.545 115.388 3.919C115.051 4.28567 114.567 4.51667 113.936 4.612C114.134 4.67067 114.306 4.76967 114.453 4.909C114.607 5.04833 114.746 5.23533 114.871 5.47L116.224 8ZM113.232 3.974C113.833 3.974 114.281 3.84933 114.574 3.6C114.875 3.35067 115.025 2.973 115.025 2.467C115.025 1.96833 114.878 1.598 114.585 1.356C114.292 1.114 113.841 0.993 113.232 0.993H111.01V3.974H113.232ZM120.851 8.088C120.133 8.088 119.506 7.92667 118.97 7.604C118.442 7.28133 118.035 6.823 117.749 6.229C117.463 5.635 117.32 4.93467 117.32 4.128C117.32 3.314 117.46 2.61 117.738 2.016C118.024 1.41467 118.431 0.956333 118.959 0.641C119.495 0.318333 120.125 0.156999 120.851 0.156999C121.577 0.156999 122.204 0.318333 122.732 0.641C123.268 0.956333 123.675 1.41467 123.953 2.016C124.239 2.61 124.382 3.31033 124.382 4.117C124.382 4.92367 124.239 5.62767 123.953 6.229C123.667 6.823 123.257 7.28133 122.721 7.604C122.193 7.92667 121.57 8.088 120.851 8.088ZM120.851 7.318C121.673 7.318 122.311 7.043 122.765 6.493C123.227 5.93567 123.458 5.14367 123.458 4.117C123.458 3.09033 123.231 2.302 122.776 1.752C122.322 1.202 121.68 0.927 120.851 0.927C120.03 0.927 119.388 1.20567 118.926 1.763C118.472 2.313 118.244 3.09767 118.244 4.117C118.244 5.13633 118.472 5.92467 118.926 6.482C119.388 7.03933 120.03 7.318 120.851 7.318ZM124.618 7.318L125.278 7.274C125.645 7.24467 125.927 7.11633 126.125 6.889C126.33 6.65433 126.433 6.33533 126.433 5.932V0.245H127.335V5.943C127.335 6.581 127.17 7.07967 126.84 7.439C126.51 7.79833 126.03 7.99633 125.399 8.033L124.684 8.077L124.618 7.318ZM129.251 0.245H134.157V0.993H130.142V3.688H133.937V4.436H130.142V7.252H134.157V8H129.251V0.245ZM138.921 8.088C138.188 8.088 137.55 7.93033 137.007 7.615C136.465 7.29233 136.047 6.834 135.753 6.24C135.467 5.63867 135.324 4.931 135.324 4.117C135.324 3.303 135.467 2.599 135.753 2.005C136.047 1.411 136.465 0.956333 137.007 0.641C137.55 0.318333 138.188 0.156999 138.921 0.156999C139.457 0.156999 139.948 0.241333 140.395 0.409999C140.843 0.571333 141.231 0.813333 141.561 1.136L141.22 1.829C140.846 1.51367 140.48 1.28633 140.12 1.147C139.761 1.00767 139.365 0.938 138.932 0.938C138.082 0.938 137.422 1.21667 136.952 1.774C136.49 2.324 136.259 3.105 136.259 4.117C136.259 5.13633 136.49 5.92467 136.952 6.482C137.422 7.032 138.082 7.307 138.932 7.307C139.365 7.307 139.761 7.23733 140.12 7.098C140.48 6.95867 140.846 6.73133 141.22 6.416L141.561 7.109C141.231 7.43167 140.843 7.67733 140.395 7.846C139.948 8.00733 139.457 8.088 138.921 8.088ZM144.817 1.015H142.122V0.245H148.436V1.015H145.73V8H144.817V1.015ZM149.246 0.245H150.302L150.082 3.292H149.488L149.246 0.245ZM151.446 0.245H152.502L152.282 3.292H151.688L151.446 0.245Z" fill="#E3B873"/>
</svg>
